<!--?xml version="1.0" standalone="no"?-->
              <svg id="sw-js-blob-svg" viewBox="0 0 100 100" xmlns="http://www.w3.org/2000/svg" version="1.1">
                    <defs> 
                        <linearGradient id="sw-gradient" x1="0" x2="1" y1="1" y2="0">
                            <stop id="stop1" stop-color="rgba(255, 81.917, 0, 1)" offset="0%"></stop>
                            <stop id="stop2" stop-color="rgba(255, 160.507, 4.536, 1)" offset="100%"></stop>
                        </linearGradient>
                    </defs>
                <path fill="url(#sw-gradient)" d="M17.9,-24.8C23.4,-24.3,28.3,-19.7,33.2,-13.8C38.1,-7.8,43,-0.5,42.3,6.3C41.7,13,35.5,19.2,29.6,25.4C23.8,31.6,18.4,37.9,12,38.8C5.6,39.7,-1.7,35.2,-8.2,31.6C-14.7,28,-20.4,25.3,-25.9,21.2C-31.4,17.1,-36.8,11.6,-37.3,5.6C-37.9,-0.4,-33.6,-6.9,-29.2,-12C-24.8,-17.1,-20.3,-20.8,-15.4,-21.7C-10.5,-22.5,-5.3,-20.5,0.5,-21.2C6.2,-21.9,12.3,-25.4,17.9,-24.8Z" width="100%" height="100%" transform="translate(50 50)" stroke-width="0" style="transition: all 0.3s ease 0s;" stroke="url(#sw-gradient)"></path>
              </svg>